<svg xmlns="http://www.w3.org/2000/svg" viewBox="0 0 800 800">
  <defs>
    <linearGradient id="mid1" x1="0" y1="0" x2="1" y2="1">
      <stop offset="0%" stop-color="#0f172a" />
      <stop offset="100%" stop-color="#7c3aed" />
    </linearGradient>
    <radialGradient id="mid2" cx="50%" cy="50%" r="50%">
      <stop offset="0%" stop-color="#c084fc" stop-opacity="0.7" />
      <stop offset="100%" stop-color="#0f172a" stop-opacity="0" />
    </radialGradient>
  </defs>
  <rect width="800" height="800" fill="url(#mid1)" />
  <circle cx="400" cy="400" r="200" fill="url(#mid2)" />
  <path d="M0 600 L20 550 L40 580 L60 540 L80 570 L100 530 L120 560 L140 520 L160 550" stroke="#f472b6" stroke-width="3" fill="none" opacity="0.6" />
  <path d="M200 600 L220 560 L240 590 L260 550 L280 580 L300 540 L320 570 L340 530 L360 560" stroke="#c084fc" stroke-width="3" fill="none" opacity="0.5" />
  <path d="M400 600 L420 560 L440 590 L460 550 L480 580 L500 540 L520 570 L540 530 L560 560" stroke="#a78bfa" stroke-width="3" fill="none" opacity="0.4" />
  <path d="M600 600 L620 560 L640 590 L660 550 L680 580 L700 540 L720 570 L740 530 L760 560" stroke="#8b5cf6" stroke-width="3" fill="none" opacity="0.3" />
  <text x="400" y="380" text-anchor="middle" font-family="Inter, sans-serif" font-size="56" fill="#ffffff" font-weight="800">MIDNIGHT STEPPE</text>
  <text x="400" y="440" text-anchor="middle" font-family="Inter, sans-serif" font-size="20" fill="#e9d5ff" opacity="0.9">Cosmic Synthwave</text>
</svg>
