<svg xmlns="http://www.w3.org/2000/svg" viewBox="0 0 800 800">
  <defs>
    <linearGradient id="steppe1" x1="0" y1="0" x2="1" y2="1">
      <stop offset="0%" stop-color="#0a0e27" />
      <stop offset="100%" stop-color="#7c2d12" />
    </linearGradient>
    <radialGradient id="steppe2" cx="50%" cy="40%" r="55%">
      <stop offset="0%" stop-color="#fbbf24" stop-opacity="0.8" />
      <stop offset="100%" stop-color="#7c2d12" stop-opacity="0" />
    </radialGradient>
  </defs>
  <rect width="800" height="800" fill="url(#steppe1)" />
  <circle cx="400" cy="300" r="210" fill="url(#steppe2)" />
  <path d="M0 550 L20 500 L40 530 L60 480 L80 520 L100 470 L120 510 L140 460" stroke="#f59e0b" stroke-width="4" fill="none" opacity="0.7" />
  <path d="M200 550 L220 500 L240 530 L260 480 L280 520 L300 470 L320 510 L340 460" stroke="#d97706" stroke-width="3" fill="none" opacity="0.6" />
  <path d="M400 550 L420 500 L440 530 L460 480 L480 520 L500 470 L520 510 L540 460" stroke="#f59e0b" stroke-width="3" fill="none" opacity="0.5" />
  <text x="400" y="380" text-anchor="middle" font-family="Inter, sans-serif" font-size="62" fill="#ffffff" font-weight="800">STEPPE ECHO</text>
  <text x="400" y="450" text-anchor="middle" font-family="Inter, sans-serif" font-size="21" fill="#fef3c7" opacity="0.9">Trap Dombyra</text>
</svg>
